# xmcd
#
# Track frame offsets:
#	150
#	16145
#	32163
#	47973
#	67661
#	84859
#	100910
#	119255
#	137934
#	154927
#	169876
#	186330
#	204691
#	219447
#
# Disc length: 3148 seconds
#
# Revision: 0
# Processed by: cddbd v1.5.2PL0 Copyright (c) Steve Scherf et al.
# Submitted via: EasyCDDAExtractor 15.3.0.1
#
DISCID=c00c4a0e
DTITLE=Lucero - Aqui Estoy
DYEAR=2014
DGENRE=Latin
TTITLE0=Quien Como Tu
TTITLE1=Ay Amor
TTITLE2=Simplemente Amigos
TTITLE3=Evidencias
TTITLE4=Soledad
TTITLE5=Pecado Original
TTITLE6=Y Aqui Estoy
TTITLE7=Es Demasiado Tarde
TTITLE8=Tu Lo Decidiste
TTITLE9=Ahora
TTITLE10=A Pesar De Todos
TTITLE11=Mi Talisman
TTITLE12=Que Manera De Perder
TTITLE13=No Entiendo
EXTD=
EXTT0=
EXTT1=
EXTT2=
EXTT3=
EXTT4=
EXTT5=
EXTT6=
EXTT7=
EXTT8=
EXTT9=
EXTT10=
EXTT11=
EXTT12=
EXTT13=
PLAYORDER=
